<svg width="192" height="48" viewBox="0 0 192 48" fill="none" xmlns="http://www.w3.org/2000/svg">
<path d="M56.1635 32V15.2727H59.7001V29.0842H66.8713V32H56.1635ZM72.5233 32H68.7335L74.508 15.2727H79.0655L84.8318 32H81.0421L76.8521 19.0952H76.7214L72.5233 32ZM72.2864 25.4251H81.2381V28.1857H72.2864V25.4251ZM86.8452 32V15.2727H93.5426C94.7732 15.2727 95.7996 15.4551 96.6218 15.82C97.444 16.1848 98.062 16.6912 98.4758 17.3391C98.8897 17.9817 99.0966 18.7222 99.0966 19.5607C99.0966 20.2141 98.9659 20.7886 98.7045 21.2841C98.4432 21.7741 98.0838 22.1771 97.6264 22.4929C97.1745 22.8033 96.6572 23.0238 96.0746 23.1545V23.3178C96.7116 23.3451 97.3079 23.5247 97.8633 23.8569C98.4241 24.189 98.8788 24.6546 99.2273 25.2536C99.5757 25.8471 99.75 26.5549 99.75 27.3771C99.75 28.2647 99.5295 29.0569 99.0884 29.7539C98.6528 30.4454 98.0076 30.9927 97.1527 31.3956C96.2978 31.7985 95.2442 32 93.9918 32H86.8452ZM90.3817 29.1087H93.2649C94.2505 29.1087 94.9692 28.9208 95.4212 28.5451C95.8731 28.1639 96.0991 27.6576 96.0991 27.0259C96.0991 26.5631 95.9874 26.1547 95.7642 25.8008C95.5409 25.4469 95.2224 25.1692 94.8086 24.9677C94.4002 24.7662 93.9129 24.6655 93.3466 24.6655H90.3817V29.1087ZM90.3817 22.2724H93.0035C93.4882 22.2724 93.9183 22.188 94.294 22.0192C94.6752 21.8449 94.9747 21.5999 95.1925 21.2841C95.4157 20.9683 95.5273 20.5898 95.5273 20.1488C95.5273 19.5444 95.3123 19.0571 94.8821 18.6868C94.4574 18.3165 93.853 18.1314 93.0689 18.1314H90.3817V22.2724ZM105.588 15.2727V32H102.051V15.2727H105.588ZM123.869 23.6364C123.869 25.4605 123.523 27.0123 122.832 28.2919C122.146 29.5715 121.209 30.5489 120.022 31.2241C118.84 31.8938 117.512 32.2287 116.036 32.2287C114.55 32.2287 113.216 31.8911 112.034 31.2159C110.853 30.5407 109.919 29.5633 109.233 28.2837C108.547 27.0041 108.203 25.455 108.203 23.6364C108.203 21.8123 108.547 20.2604 109.233 18.9808C109.919 17.7012 110.853 16.7266 112.034 16.0568C113.216 15.3816 114.55 15.044 116.036 15.044C117.512 15.044 118.84 15.3816 120.022 16.0568C121.209 16.7266 122.146 17.7012 122.832 18.9808C123.523 20.2604 123.869 21.8123 123.869 23.6364ZM120.283 23.6364C120.283 22.4548 120.106 21.4583 119.752 20.647C119.404 19.8357 118.911 19.2204 118.274 18.8011C117.637 18.3819 116.891 18.1722 116.036 18.1722C115.181 18.1722 114.435 18.3819 113.798 18.8011C113.161 19.2204 112.666 19.8357 112.312 20.647C111.963 21.4583 111.789 22.4548 111.789 23.6364C111.789 24.8179 111.963 25.8144 112.312 26.6257C112.666 27.437 113.161 28.0523 113.798 28.4716C114.435 28.8909 115.181 29.1005 116.036 29.1005C116.891 29.1005 117.637 28.8909 118.274 28.4716C118.911 28.0523 119.404 27.437 119.752 26.6257C120.106 25.8144 120.283 24.8179 120.283 23.6364ZM132.802 26.1847H135.808L137.319 28.1286L138.805 29.8601L141.607 33.3722H138.307L136.38 31.0036L135.391 29.5987L132.802 26.1847ZM141.86 23.6364C141.86 25.4605 141.514 27.0123 140.823 28.2919C140.137 29.5715 139.2 30.5489 138.013 31.2241C136.832 31.8938 135.503 32.2287 134.027 32.2287C132.541 32.2287 131.207 31.8911 130.025 31.2159C128.844 30.5407 127.91 29.5633 127.224 28.2837C126.538 27.0041 126.195 25.455 126.195 23.6364C126.195 21.8123 126.538 20.2604 127.224 18.9808C127.91 17.7012 128.844 16.7266 130.025 16.0568C131.207 15.3816 132.541 15.044 134.027 15.044C135.503 15.044 136.832 15.3816 138.013 16.0568C139.2 16.7266 140.137 17.7012 140.823 18.9808C141.514 20.2604 141.86 21.8123 141.86 23.6364ZM138.275 23.6364C138.275 22.4548 138.098 21.4583 137.744 20.647C137.395 19.8357 136.902 19.2204 136.265 18.8011C135.628 18.3819 134.882 18.1722 134.027 18.1722C133.173 18.1722 132.427 18.3819 131.789 18.8011C131.152 19.2204 130.657 19.8357 130.303 20.647C129.955 21.4583 129.78 22.4548 129.78 23.6364C129.78 24.8179 129.955 25.8144 130.303 26.6257C130.657 27.437 131.152 28.0523 131.789 28.4716C132.427 28.8909 133.173 29.1005 134.027 29.1005C134.882 29.1005 135.628 28.8909 136.265 28.4716C136.902 28.0523 137.395 27.437 137.744 26.6257C138.098 25.8144 138.275 24.8179 138.275 23.6364ZM154.812 15.2727H158.349V26.1357C158.349 27.3554 158.057 28.4226 157.475 29.3374C156.897 30.2521 156.089 30.9654 155.049 31.4773C154.009 31.9837 152.797 32.2369 151.414 32.2369C150.026 32.2369 148.811 31.9837 147.771 31.4773C146.731 30.9654 145.923 30.2521 145.346 29.3374C144.769 28.4226 144.48 27.3554 144.48 26.1357V15.2727H148.017V25.8335C148.017 26.4705 148.155 27.0368 148.433 27.5323C148.716 28.0278 149.114 28.4171 149.626 28.7003C150.137 28.9834 150.734 29.125 151.414 29.125C152.1 29.125 152.697 28.9834 153.203 28.7003C153.715 28.4171 154.11 28.0278 154.387 27.5323C154.67 27.0368 154.812 26.4705 154.812 25.8335V15.2727ZM164.795 15.2727V32H161.258V15.2727H164.795ZM167.705 15.2727H172.066L176.673 26.5114H176.869L181.475 15.2727H185.837V32H182.406V21.1126H182.267L177.939 31.9183H175.603L171.274 21.0717H171.135V32H167.705V15.2727Z" fill="white"/>
<g clip-path="url(#clip0_1_35)">
<path d="M6.19354 10C6.19354 9.46957 6.41105 8.96086 6.79823 8.58579C7.1854 8.21071 7.71051 8 8.25806 8H41.2903C41.8379 8 42.363 8.21071 42.7502 8.58579C43.1373 8.96086 43.3548 9.46957 43.3548 10V30C43.3548 30.5304 43.1373 31.0391 42.7502 31.4142C42.363 31.7893 41.8379 32 41.2903 32H8.25806C7.71051 32 7.1854 31.7893 6.79823 31.4142C6.41105 31.0391 6.19354 30.5304 6.19354 30V10Z" stroke="white" stroke-width="2" stroke-linecap="round" stroke-linejoin="round"/>
<path d="M14.4516 40H35.0968" stroke="white" stroke-width="2" stroke-linecap="round" stroke-linejoin="round"/>
<path d="M18.5806 32V40" stroke="white" stroke-width="2" stroke-linecap="round" stroke-linejoin="round"/>
<path d="M30.9677 32V40" stroke="white" stroke-width="2" stroke-linecap="round" stroke-linejoin="round"/>
<path d="M18.5806 24V16" stroke="white" stroke-width="2" stroke-linecap="round" stroke-linejoin="round"/>
<path d="M24.7742 24V22" stroke="white" stroke-width="2" stroke-linecap="round" stroke-linejoin="round"/>
<path d="M30.9677 24V20" stroke="white" stroke-width="2" stroke-linecap="round" stroke-linejoin="round"/>
<path d="M24.7742 24V22" stroke="white" stroke-width="2" stroke-linecap="round" stroke-linejoin="round"/>
</g>
<defs>
<clipPath id="clip0_1_35">
<rect width="49.5484" height="48" fill="white"/>
</clipPath>
</defs>
</svg>
